:version 1.10
:name ASF
:units
  mass 1
  length 1
  angle deg
:documentation
  ASF file generated by Kaydara
:root
  axis xyz
  order  tx ty tz rx ry rz
  position 0 0 0
  orientation 0 0 0
:bonedata
  begin
    id 1
    name RightUpLegDummy
    direction -1 2.30186e-007 8.31532e-007
    length 4.46685
    axis 0 0 0 xyz
  end
  begin
    id 2
    name RightUpLeg
    direction -2.30187e-007 -1 1.24343e-010
    length 16.4045
    axis -3.49089 -0.000906625 0.000286804 xyz
    dof rx ry rz
  end
  begin
    id 3
    name RightLeg
    direction -2.30181e-007 -1 -4.17157e-009
    length 17.5097
    axis 3.68512 0.0193738 -0.131023 xyz
    dof rx ry rz
  end
  begin
    id 4
    name RightFoot
    direction 8.31421e-007 -4.51202e-011 1
    length 6.49508
    axis 4.81691e-005 -0.120479 -0.188788 xyz
    dof rx ry rz
  end
  begin
    id 5
    name RightToes
    direction 0.00124746 -0.014064 0.9999
    length 3.85082
    axis 0.000481921 0.542163 -0.142578 xyz
    dof rx ry rz
  end
  begin
    id 6
    name SpineDummy
    direction 0.0717043 0.9409 -0.331007
    length 10.0032
    axis 0 0 0 xyz
  end
  begin
    id 7
    name Spine
    direction 2.30186e-007 1 4.58806e-011
    length 9.84055
    axis -0.001389 0.000121418 2.40972e-006 xyz
    dof rx ry rz
  end
  begin
    id 8
    name Spine1
    direction 0 0 0
    length 0
    axis -0.001389 0.000121451 1.30017e-006 xyz
    dof rx ry rz
  end
  begin
    id 9
    name HEadDummy
    direction -0.00347485 0.950688 -0.310128
    length 8.00997
    axis -0.001389 0.000121451 1.30017e-006 xyz
  end
  begin
    id 10
    name HEad
    direction -0.0222688 0.980941 0.193023
    length 5.12695
    axis -0.001389 0.000121451 1.30017e-006 xyz
    dof rx ry rz
  end
  begin
    id 11
    name LeftShoulder1Dummy
    direction 0.988871 0.146793 -0.0242004
    length 3.5792
    axis -0.001389 0.000121451 1.30017e-006 xyz
  end
  begin
    id 12
    name LeftShoulder1
    direction 0.993832 0.108932 0.020779
    length 4.16823
    axis -0.001389 0.000121451 1.30017e-006 xyz
    dof rx ry rz
  end
  begin
    id 13
    name LeftArm
    direction 1 3.44807e-006 -8.31404e-007
    length 9.91437
    axis -23.1894 0.134784 0.967509 xyz
    dof rx ry rz
  end
  begin
    id 14
    name LeftForeArm
    direction 1 3.44842e-006 -8.31581e-007
    length 9.08575
    axis -9.91835 -0.06569 -0.177793 xyz
    dof rx ry rz
  end
  begin
    id 15
    name LeftHand
    direction 0.992938 -0.0411636 0.11126
    length 5.32135
    axis -0.00960232 -0.00340091 0.185173 xyz
    dof rx ry rz
  end
  begin
    id 16
    name RightShoulderDummy
    direction -0.988871 0.146793 -0.0241962
    length 3.5792
    axis -0.001389 0.000121451 1.30017e-006 xyz
  end
  begin
    id 17
    name RightShoulder
    direction -0.993832 0.108933 0.0207785
    length 4.16823
    axis 0.215806 0.000203643 -0.0068026 xyz
    dof rx ry rz
  end
  begin
    id 18
    name RightArm
    direction -1 3.90912e-006 8.31284e-007
    length 9.91437
    axis -23.2009 -0.134239 -0.964101 xyz
    dof rx ry rz
  end
  begin
    id 19
    name RightForeArm
    direction -1 3.90882e-006 8.31502e-007
    length 9.08575
    axis -9.92322 0.0658061 0.178867 xyz
    dof rx ry rz
  end
  begin
    id 20
    name RightHand
    direction -0.992843 -0.0414603 0.112003
    length 5.28593
    axis -0.00960638 0.00330671 -0.185228 xyz
    dof rx ry rz
  end
  begin
    id 21
    name LeftUpLegDummy
    direction 1 -2.30186e-007 -8.31532e-007
    length 4.46685
    axis 0 0 0 xyz
  end
  begin
    id 22
    name LeftUpLeg
    direction -2.30187e-007 -1 6.00931e-010
    length 16.4045
    axis -3.48766 0.00143442 -0.000524262 xyz
    dof rx ry rz
  end
  begin
    id 23
    name LeftLeg
    direction -2.30187e-007 -1 1.6669e-009
    length 17.5097
    axis 3.68178 -0.00654042 -0.000285133 xyz
    dof rx ry rz
  end
  begin
    id 24
    name LeftFoot
    direction 8.31532e-007 -4.54478e-011 1
    length 6.49508
    axis 1.87233e-006 4.66016e-005 -8.6538e-006 xyz
    dof rx ry rz
  end
  begin
    id 25
    name LeftToes
    direction 0.00818058 -0.00485161 0.999955
    length 3.85048
    axis 1.06247e-005 4.65869e-005 -8.65513e-006 xyz
    dof rx ry rz
  end
:hierarchy
  begin
    root RightUpLegDummy SpineDummy LeftUpLegDummy
    RightUpLegDummy RightUpLeg
    RightUpLeg RightLeg
    RightLeg RightFoot
    RightFoot RightToes
    SpineDummy Spine
    Spine Spine1
    Spine1 HEadDummy LeftShoulder1Dummy RightShoulderDummy
    HEadDummy HEad
    LeftShoulder1Dummy LeftShoulder1
    LeftShoulder1 LeftArm
    LeftArm LeftForeArm
    LeftForeArm LeftHand
    RightShoulderDummy RightShoulder
    RightShoulder RightArm
    RightArm RightForeArm
    RightForeArm RightHand
    LeftUpLegDummy LeftUpLeg
    LeftUpLeg LeftLeg
    LeftLeg LeftFoot
    LeftFoot LeftToes
  end

:SAMPLES-PER-SECOND 30
:FULLY-SPECIFIED
:DEGREES
126
root  14.8692 25.1014 -3.61983 -146.693 73.041 -176.397
RightUpLeg  -87.2534 3.08203 -3.46686
RightLeg  82.1838 1.33875 6.08602
RightFoot  -12.1111 -0.307911 -2.52448
RightToes  -33.7105 -0.170289 -0.27691
Spine  30.4455 -2.11711 3.68759
Spine1  46.9563 -6.43291 7.738
HEad  -2.20043 -30.1186 34.6276
LeftShoulder1  0 -2.42657e-020 -4.95415e-022
LeftArm  23.5901 -71.1532 -101.977
LeftForeArm  26.5085 -28.1818 -5.41389
LeftHand  0.0409211 -0.466581 -10.5509
RightShoulder  0 2.42657e-020 1.07489e-018
RightArm  -42.4739 65.9273 81.5967
RightForeArm  23.1792 22.8968 4.26631
RightHand  -0.382146 17.7207 -2.08181
LeftUpLeg  -83.5871 -1.24495 -0.19479
LeftLeg  84.5783 0.269528 1.63858
LeftFoot  -21.3954 -0.325971 -1.72541
LeftToes  -11.5946 2.37847e-007 4.89147e-008
127
root  14.6905 26.1991 -3.73484 -148.337 73.9856 -176.505
RightUpLeg  -82.6303 4.27489 -4.36587
RightLeg  76.4709 1.75735 5.38115
RightFoot  -9.28745 -0.217224 -2.29645
RightToes  -33.8601 -0.171385 -0.277879
Spine  29.1552 -2.70732 4.00197
Spine1  45.2686 -7.67694 8.79394
HEad  -2.34339 -27.1703 33.8358
LeftShoulder1  0 -2.42657e-020 -4.95415e-022
LeftArm  26.2495 -66.9681 -101.914
LeftForeArm  24.7738 -30.4894 -5.9533
LeftHand  0.0490658 -0.562546 -10.4683
RightShoulder  0 2.42657e-020 1.07489e-018
RightArm  -45.3036 59.8883 80.2035
RightForeArm  22.7839 26.977 5.14546
RightHand  -0.420122 18.1528 -2.26018
LeftUpLeg  -78.6499 -0.324948 -1.0571
LeftLeg  78.7166 0.363835 1.33503
LeftFoot  -19.4143 -0.292402 -1.70922
LeftToes  -10.5072 2.37847e-007 4.89147e-008
128
root  14.5095 27.2734 -3.85854 -150.868 74.772 -177.541
RightUpLeg  -78.042 5.15989 -5.3483
RightLeg  70.7203 2.19235 4.98296
RightFoot  -6.34891 -0.136692 -2.08693
RightToes  -32.0244 -0.158107 -0.265787
Spine  27.4892 -3.36316 4.10872
Spine1  43.2676 -8.7047 9.12751
HEad  -1.56288 -23.5387 32.9875
LeftShoulder1  0 -2.42657e-020 -4.95415e-022
LeftArm  28.6544 -62.4083 -100.688
LeftForeArm  24.0992 -33.154 -6.60981
LeftHand  0.0704898 -0.867196 -9.74175
RightShoulder  0 2.42657e-020 1.07489e-018
RightArm  -47.7482 53.5062 79.6316
RightForeArm  22.1489 30.8726 6.04873
RightHand  -0.508806 18.8548 -2.69454
LeftUpLeg  -73.6582 0.494162 -2.02626
LeftLeg  72.5482 0.299823 0.757649
LeftFoot  -16.8893 -0.233658 -1.57376
LeftToes  -10.361 2.37847e-007 4.89147e-008
129
root  14.3567 28.3011 -3.98896 -153.613 75.5752 -178.665
RightUpLeg  -73.35 5.96184 -6.22735
RightLeg  64.9964 2.78663 4.95809
RightFoot  -3.07864 -0.0598467 -1.84964
RightToes  -32.9938 -0.165071 -0.272226
Spine  25.6095 -3.93308 4.16518
Spine1  40.9195 -9.71805 9.6242
HEad  -0.645969 -21.118 32.4971
LeftShoulder1  0 -2.42657e-020 -4.95415e-022
LeftArm  30.5177 -57.3627 -99.6358
LeftForeArm  22.9573 -36.0129 -7.36173
LeftHand  0.09358 -1.18721 -9.43856
RightShoulder  0 2.42657e-020 1.07489e-018
RightArm  -50.9129 46.725 78.6527
RightForeArm  20.5649 35.2949 7.17143
RightHand  -0.496855 19.7359 -2.48649
LeftUpLeg  -68.4306 0.732551 -2.525
LeftLeg  66.2127 0.443956 0.840467
LeftFoot  -14.2282 -0.200503 -1.60641
LeftToes  -10.6112 2.37847e-007 4.89147e-008
130
root  14.2621 29.2448 -4.08098 -154.888 76.2876 -178.111
RightUpLeg  -68.3376 7.05661 -6.76622
RightLeg  59.449 4.06979 5.8718
RightFoot  -0.451628 -0.00774753 -1.59048
RightToes  -34.2623 -0.174346 -0.280472
Spine  23.6983 -4.42813 4.22505
Spine1  38.3997 -10.7921 10.3935
HEad  0.36978 -20.2943 32.0552
LeftShoulder1  0 -2.42657e-020 -4.95415e-022
LeftArm  31.165 -52.0901 -98.2735
LeftForeArm  20.6364 -38.6958 -8.12021
LeftHand  0.196636 -2.32261 -10.0771
RightShoulder  0 2.42657e-020 1.07489e-018
RightArm  -54.2585 39.8717 77.4862
RightForeArm  19.2621 40.1816 8.57027
RightHand  -0.286893 20.4821 -1.21822
LeftUpLeg  -63.166 0.540515 -2.21237
LeftLeg  60.1381 0.996724 1.49239
LeftFoot  -11.7293 -0.176994 -1.72301
LeftToes  -10.339 2.37847e-007 4.89147e-008
131
root  14.2409 30.0534 -4.11547 -155.884 76.7089 -177.017
RightUpLeg  -62.8231 9.01905 -7.67113
RightLeg  55.4363 5.52588 6.90246
RightFoot  -1.47603 -0.025262 -1.58412
RightToes  -37.8791 -0.201766 -0.302831
Spine  21.8371 -5.02059 4.07943
Spine1  35.822 -12.2388 11.2137
HEad  2.24821 -20.8192 31.3049
LeftShoulder1  0 -2.42657e-020 -4.95415e-022
LeftArm  30.5526 -46.8644 -96.1076
LeftForeArm  18.2767 -41.0498 -8.83524
LeftHand  0.422301 -4.16937 -11.9518
RightShoulder  0 2.42657e-020 1.07489e-018
RightArm  -57.6042 33.262 76.9061
RightForeArm  18.0382 45.7777 10.4547
RightHand  0.0536429 21.42 0.653827
LeftUpLeg  -57.9138 0.588181 -1.81913
LeftLeg  54.5637 1.40457 1.71784
LeftFoot  -9.36506 -0.135097 -1.64927
LeftToes  -10.692 2.37847e-007 4.89147e-008
132
root  14.2619 30.7504 -4.11482 -157.178 76.7031 -176.255
RightUpLeg  -57.0703 10.4517 -8.24194
RightLeg  52.7971 5.17508 5.89439
RightFoot  -3.47458 -0.0597066 -1.5911
RightToes  -38.5923 -0.207336 -0.307033
Spine  20.0368 -5.79329 3.64139
Spine1  33.2185 -14.2436 12.0049
HEad  4.69504 -21.886 30.2661
LeftShoulder1  0 -2.42657e-020 -4.95415e-022
LeftArm  29.0433 -41.8415 -93.7959
LeftForeArm  14.7517 -43.0405 -9.48097
LeftHand  0.673305 -5.43562 -14.5004
RightShoulder  0 2.42657e-020 1.07489e-018
RightArm  -60.3245 27.3276 77.0427
RightForeArm  18.8744 52.3362 13.2408
RightHand  0.429035 22.1437 2.56298
LeftUpLeg  -52.8742 0.973514 -1.61903
LeftLeg  49.2323 1.24565 1.26225
LeftFoot  -7.06589 -0.085115 -1.37855
LeftToes  -11.1636 2.37847e-007 4.89147e-008
133
root  14.247 31.2839 -4.05556 -158.904 76.5591 -176.39
RightUpLeg  -51.6833 11.1477 -8.82815
RightLeg  50.8618 3.40353 3.61732
RightFoot  -4.75196 -0.0693162 -1.29309
RightToes  -37.3184 -0.197424 -0.299478
Spine  18.3178 -6.39432 3.24991
Spine1  31.0027 -15.5496 11.4517
HEad  7.80675 -22.5152 28.5009
LeftShoulder1  0 -2.42657e-020 -4.95415e-022
LeftArm  27.3538 -36.8199 -91.5402
LeftForeArm  12.5284 -45.1503 -10.2148
LeftHand  0.90051 -6.57777 -15.9608
RightShoulder  0 2.42657e-020 1.07489e-018
RightArm  -61.4321 20.3435 78.1945
RightForeArm  27.0509 64.3348 21.6465
RightHand  0.579456 23.0729 3.20918
LeftUpLeg  -48.8109 1.67798 -1.71981
LeftLeg  44.5877 0.795441 0.682898
LeftFoot  -4.86346 -0.0464317 -1.09333
LeftToes  -11.955 2.37847e-007 4.89147e-008
134
root  14.2997 31.6096 -3.94924 -162.796 75.725 -178.847
RightUpLeg  -46.4813 10.0129 -9.54986
RightLeg  50.1653 1.64664 1.68662
RightFoot  -7.03573 -0.0807326 -0.935733
RightToes  -34.7426 -0.177906 -0.28354
Spine  17.0893 -6.66312 3.17556
Spine1  29.9659 -15.2501 9.16931
HEad  11.2009 -22.3978 26.3675
LeftShoulder1  0 -2.42657e-020 -4.95415e-022
LeftArm  26.0543 -32.3381 -90.0935
LeftForeArm  14.4006 -47.2443 -11.005
LeftHand  0.844962 -6.66357 -14.8228
RightShoulder  0 2.42657e-020 1.07489e-018
RightArm  -62.0221 13.6512 79.2574
RightForeArm  52.0203 75.2225 42.3854
RightHand  0.0770984 23.4302 0.742006
LeftUpLeg  -45.42 1.96322 -2.22818
LeftLeg  41.0124 -0.25061 -0.196645
LeftFoot  -3.19027 -0.0231436 -0.831077
LeftToes  -12.6933 2.37847e-007 4.89147e-008
135
root  14.3359 31.8499 -3.75806 -165.805 75.2465 179.193
RightUpLeg  -41.5745 9.38377 -10.8274
RightLeg  48.8163 0.174971 0.13297
RightFoot  -8.90284 -0.0657185 -0.466656
RightToes  -32.1281 -0.158847 -0.266482
Spine  16.0572 -6.78356 3.00451
Spine1  29.0616 -14.5905 6.68216
HEad  15.2547 -21.647 23.6417
LeftShoulder1  0 -2.42657e-020 -4.95415e-022
LeftArm  24.0175 -27.9591 -88.7234
LeftForeArm  17.6796 -48.4562 -11.4944
LeftHand  0.775318 -7.20861 -12.6437
RightShoulder  0 2.42657e-020 1.07489e-018
RightArm  -61.5934 8.38084 80.8508
RightForeArm  100.818 79.8802 87.8569
RightHand  -0.708991 23.7622 -2.99975
LeftUpLeg  -42.8962 3.00354 -2.74448
LeftLeg  38.2015 -1.35605 -0.937517
LeftFoot  -1.73828 -0.00989311 -0.65213
LeftToes  -12.8281 2.37847e-007 4.89147e-008
